<svg width="76" height="76" viewBox="0 0 76 76" fill="none" xmlns="http://www.w3.org/2000/svg">
<path d="M74 50.0003L57.3947 33.3945C55.5203 31.5201 52.4812 31.5201 50.6068 33.3946L10.0024 74M9.9997 2H65.9976C70.4157 2 73.9973 5.58168 73.9973 9.99991V65.9993C73.9973 70.4175 70.4157 73.9992 65.9976 73.9992H9.9997C5.58159 73.9992 2 70.4175 2 65.9993V9.99991C2 5.58168 5.58159 2 9.9997 2ZM29.9962 24.0005C29.9962 27.3142 27.31 30.0005 23.9964 30.0005C20.6828 30.0005 17.9967 27.3142 17.9967 24.0005C17.9967 20.6869 20.6828 18.0006 23.9964 18.0006C27.31 18.0006 29.9962 20.6869 29.9962 24.0005Z" stroke="white" stroke-width="4" stroke-linecap="round" stroke-linejoin="round"/>
</svg>
