<svg width="284" height="290" viewBox="0 0 284 290" fill="none" xmlns="http://www.w3.org/2000/svg">
<g style="mix-blend-mode:screen" opacity="0.8">
<path d="M137.165 5.32062C138.476 0.354947 145.524 0.354938 146.835 5.32061L158.901 51.0467C159.93 54.9475 164.918 56.0859 167.538 53.018L198.249 17.0556C201.584 13.1502 207.934 16.2084 206.96 21.2508L197.992 67.6841C197.227 71.6452 201.227 74.8348 204.918 73.2075L248.191 54.1316C252.891 52.06 257.285 57.5706 254.22 61.6911L225.993 99.6347C223.585 102.872 225.805 107.481 229.837 107.616L277.102 109.205C282.234 109.378 283.803 116.249 279.253 118.632L237.358 140.571C233.785 142.442 233.785 147.558 237.358 149.429L279.253 171.368C283.803 173.751 282.234 180.622 277.102 180.795L229.837 182.384C225.805 182.519 223.585 187.128 225.993 190.365L254.22 228.309C257.285 232.429 252.891 237.94 248.191 235.868L204.918 216.793C201.227 215.165 197.227 218.355 197.992 222.316L206.96 268.749C207.934 273.792 201.584 276.85 198.249 272.944L167.538 236.982C164.918 233.914 159.93 235.052 158.901 238.953L146.835 284.679C145.524 289.645 138.476 289.645 137.165 284.679L125.099 238.953C124.07 235.052 119.082 233.914 116.462 236.982L85.7511 272.944C82.416 276.85 76.0657 273.792 77.0396 268.749L86.008 222.316C86.7731 218.355 82.7735 215.165 79.0819 216.793L35.8085 235.868C31.1092 237.94 26.7147 232.429 29.78 228.309L58.0068 190.365C60.4148 187.128 58.1952 182.519 54.1631 182.384L6.89845 180.795C1.76569 180.622 0.197293 173.751 4.74688 171.368L46.6415 149.429C50.2155 147.558 50.2155 142.442 46.6415 140.571L4.74689 118.632C0.197299 116.249 1.76569 109.378 6.89844 109.205L54.1631 107.616C58.1952 107.481 60.4148 102.872 58.0069 99.6348L29.78 61.6911C26.7147 57.5706 31.1092 52.06 35.8085 54.1316L79.0819 73.2075C82.7735 74.8348 86.7731 71.6452 86.008 67.6841L77.0396 21.2508C76.0657 16.2084 82.416 13.1502 85.7511 17.0556L116.462 53.018C119.082 56.0859 124.07 54.9475 125.099 51.0467L137.165 5.32062Z" stroke="#FFF5BE" stroke-width="2.5"/>
</g>
</svg>
