<svg width="120" height="117" viewBox="0 0 120 117" fill="none" xmlns="http://www.w3.org/2000/svg">
<g style="mix-blend-mode:screen" opacity="0.2">
<path d="M73.5993 -36.0077C74.3855 -38.9871 78.6145 -38.987 79.4007 -36.0076L85.5023 -12.8852C86.12 -10.5447 89.1124 -9.8617 90.6844 -11.7024L106.214 -29.8876C108.215 -32.2309 112.025 -30.396 111.441 -27.3705L106.906 -3.89048C106.447 -1.51381 108.847 0.399937 111.062 -0.576458L132.944 -10.2226C135.763 -11.4656 138.4 -8.1592 136.561 -5.68689L122.287 13.5002C120.843 15.4423 122.174 18.2078 124.594 18.2891L148.494 19.0925C151.574 19.196 152.515 23.319 149.785 24.7485L128.6 35.8424C126.456 36.9653 126.456 40.0347 128.6 41.1577L149.785 52.2515C152.515 53.681 151.574 57.804 148.494 57.9075L124.594 58.7109C122.174 58.7922 120.843 61.5577 122.287 63.4998L136.561 82.6869C138.4 85.1592 135.763 88.4656 132.944 87.2226L111.062 77.5765C108.847 76.6001 106.447 78.5138 106.906 80.8905L111.441 104.371C112.025 107.396 108.215 109.231 106.214 106.888L90.6844 88.7024C89.1124 86.8617 86.12 87.5447 85.5023 89.8852L79.4007 113.008C78.6145 115.987 74.3855 115.987 73.5993 113.008L67.4977 89.8852C66.88 87.5447 63.8876 86.8617 62.3156 88.7024L46.7858 106.888C44.7847 109.231 40.9745 107.396 41.5589 104.37L46.094 80.8905C46.553 78.5138 44.1532 76.6001 41.9383 77.5765L20.0561 87.2226C17.2365 88.4656 14.5998 85.1592 16.439 82.6869L30.7126 63.4998C32.1574 61.5577 30.8256 58.7922 28.4063 58.7109L4.50588 57.9075C1.42623 57.804 0.485202 53.681 3.21495 52.2515L24.3999 41.1576C26.5443 40.0347 26.5443 36.9653 24.3999 35.8424L3.21495 24.7485C0.485195 23.319 1.42624 19.196 4.50589 19.0925L28.4064 18.2891C30.8256 18.2078 32.1574 15.4423 30.7126 13.5002L16.439 -5.6869C14.5998 -8.15921 17.2366 -11.4656 20.0561 -10.2226L41.9383 -0.576454C44.1532 0.399941 46.553 -1.51382 46.094 -3.89049L41.5589 -27.3705C40.9745 -30.396 44.7847 -32.2309 46.7858 -29.8876L62.3156 -11.7024C63.8876 -9.8617 66.88 -10.5447 67.4977 -12.8852L73.5993 -36.0077Z" stroke="#FFF5BE" stroke-width="2.5"/>
</g>
</svg>
