<svg width="130" height="37" viewBox="0 0 130 37" fill="none" xmlns="http://www.w3.org/2000/svg">
<path d="M14.352 28L10.634 22.67C10.478 22.6873 10.244 22.696 9.932 22.696H5.824V28H2.444V9.8H9.932C11.5093 9.8 12.8787 10.06 14.04 10.58C15.2187 11.1 16.12 11.8453 16.744 12.816C17.368 13.7867 17.68 14.9393 17.68 16.274C17.68 17.6433 17.342 18.822 16.666 19.81C16.0073 20.798 15.054 21.5347 13.806 22.02L17.992 28H14.352ZM14.274 16.274C14.274 15.1127 13.8927 14.22 13.13 13.596C12.3673 12.972 11.2493 12.66 9.776 12.66H5.824V19.914H9.776C11.2493 19.914 12.3673 19.602 13.13 18.978C13.8927 18.3367 14.274 17.4353 14.274 16.274ZM27.7536 25.426C29.2616 25.426 30.5182 24.9233 31.5236 23.918L33.2396 25.92C32.6329 26.6653 31.8529 27.2287 30.8996 27.61C29.9462 27.9913 28.8716 28.182 27.6756 28.182C26.1502 28.182 24.8069 27.8787 23.6456 27.272C22.4842 26.6653 21.5829 25.8247 20.9416 24.75C20.3176 23.658 20.0056 22.4273 20.0056 21.058C20.0056 19.706 20.3089 18.4927 20.9156 17.418C21.5396 16.326 22.3889 15.4767 23.4636 14.87C24.5556 14.2633 25.7862 13.96 27.1556 13.96C28.4556 13.96 29.6342 14.246 30.6916 14.818C31.7662 15.3727 32.6156 16.1787 33.2396 17.236C33.8636 18.276 34.1756 19.498 34.1756 20.902L23.5416 22.982C23.8709 23.7793 24.3996 24.386 25.1276 24.802C25.8556 25.218 26.7309 25.426 27.7536 25.426ZM27.1556 16.56C25.9596 16.56 24.9889 16.95 24.2436 17.73C23.5156 18.51 23.1516 19.5587 23.1516 20.876V20.902L31.0036 19.394C30.7782 18.5447 30.3189 17.86 29.6256 17.34C28.9496 16.82 28.1262 16.56 27.1556 16.56ZM45.098 27.246C44.7167 27.558 44.2487 27.792 43.694 27.948C43.1567 28.104 42.5847 28.182 41.978 28.182C40.4527 28.182 39.274 27.7833 38.442 26.986C37.61 26.1887 37.194 25.0273 37.194 23.502V11.048H40.444V14.22H44.162V16.82H40.444V23.424C40.444 24.1 40.6087 24.62 40.938 24.984C41.2847 25.3307 41.7613 25.504 42.368 25.504C43.096 25.504 43.7027 25.3133 44.188 24.932L45.098 27.246ZM50.8783 16.144C51.8143 14.688 53.461 13.96 55.8183 13.96V17.054C55.541 17.002 55.2897 16.976 55.0643 16.976C53.799 16.976 52.811 17.3487 52.1003 18.094C51.3897 18.822 51.0343 19.8793 51.0343 21.266V28H47.7843V14.116H50.8783V16.144ZM64.6884 28.182C63.2844 28.182 62.0191 27.8787 60.8924 27.272C59.7657 26.6653 58.8817 25.8247 58.2404 24.75C57.6164 23.658 57.3044 22.4273 57.3044 21.058C57.3044 19.6887 57.6164 18.4667 58.2404 17.392C58.8817 16.3173 59.7657 15.4767 60.8924 14.87C62.0191 14.2633 63.2844 13.96 64.6884 13.96C66.1097 13.96 67.3837 14.2633 68.5104 14.87C69.6371 15.4767 70.5124 16.3173 71.1364 17.392C71.7777 18.4667 72.0984 19.6887 72.0984 21.058C72.0984 22.4273 71.7777 23.658 71.1364 24.75C70.5124 25.8247 69.6371 26.6653 68.5104 27.272C67.3837 27.8787 66.1097 28.182 64.6884 28.182ZM64.6884 25.4C65.8844 25.4 66.8724 25.0013 67.6524 24.204C68.4324 23.4067 68.8224 22.358 68.8224 21.058C68.8224 19.758 68.4324 18.7093 67.6524 17.912C66.8724 17.1147 65.8844 16.716 64.6884 16.716C63.4924 16.716 62.5044 17.1147 61.7244 17.912C60.9617 18.7093 60.5804 19.758 60.5804 21.058C60.5804 22.358 60.9617 23.4067 61.7244 24.204C62.5044 25.0013 63.4924 25.4 64.6884 25.4Z" fill="white"/>
<path d="M82.4006 24.9131C80.2414 24.6367 77.1232 22.7903 80.4711 16.7578C84.5368 9.43179 91.2212 7.08195 94.1844 6.59816C97.6299 6.03561 102.591 6.94372 98.8014 14.4079C96.9197 18.1137 89.843 23.1853 88.3269 23.8764M89.8429 18.0018C88.8093 21.1119 86.7695 27.6223 86.8798 28.7834M88.258 24.0838C90.9455 21.5266 97.7549 21.1119 96.4584 26.2263C95.4248 30.3039 92.117 33.4807 87.9824 35.0727C81.7115 37.4874 81.4358 34.5889 82.5384 33.1376M105.141 21.803C104.383 22.8858 103.694 25.0993 103.694 26.2954C103.694 27.6776 106.037 28.2997 109.552 21.2501C109.646 21.0439 109.752 20.8154 109.866 20.5694M109.866 20.5694C110.807 18.535 112.228 15.305 110.999 13.5786C109.687 11.7364 107.76 11.367 106.037 13.1639C104.56 14.704 103.794 20.3904 109.866 20.5694ZM109.866 20.5694C110.889 20.5996 112.107 20.4733 113.548 20.1443C113.731 20.1443 110.481 25.7563 111.473 26.9174C112.465 28.0785 115.24 24.7288 116.504 22.9088M95.218 34.1743C95.6315 34.1743 108.311 28.507 121.197 30.7186M119.278 12.6166L118.431 14.1259M126.021 1L123.176 5.82101M123.176 5.82101L122.024 7.77308M123.176 5.82101L109.838 5.14731M123.176 5.82101L128.984 6.11436M109.827 5.14678L109.838 5.14731M109.838 5.14731L118.857 16.0644M118.234 30.2348L118.855 16.0666L118.857 16.0644M118.857 16.0644L118.86 16.0686M118.857 16.0644L129 6.11436M104.108 22.425C103.97 21.2501 102.178 19.5223 100.042 22.0104C96.6072 26.0105 99.6283 29.129 102.109 26.7792C103.832 25.1473 104.108 23.1853 104.108 22.425ZM121.871 8.12382C122.175 8.40855 122.619 9.30547 121.962 10.6153C121.305 11.9251 120.218 12.3129 119.756 12.343C119.264 12.0947 118.507 11.1448 119.416 9.3312C120.325 7.51758 121.432 7.77061 121.871 8.12382Z" stroke="white" stroke-width="2" stroke-linecap="round"/>
</svg>
