<svg width="162" height="166" viewBox="0 0 162 166" fill="none" xmlns="http://www.w3.org/2000/svg">
<g style="mix-blend-mode:screen" opacity="0.8">
<path d="M78.0922 4.4594C78.8575 1.44322 83.1425 1.44323 83.9078 4.45941L90.3723 29.935C90.9741 32.3065 94.0088 32.9991 95.5799 31.1236L112.458 10.9757C114.456 8.59029 118.316 10.4495 117.697 13.499L112.468 39.2566C111.981 41.6543 114.415 43.595 116.644 42.5869L140.593 31.7573C143.428 30.4751 146.099 33.8252 144.219 36.3042L128.331 57.2421C126.853 59.1911 128.203 61.9956 130.649 62.0546L156.924 62.6881C160.035 62.7631 160.989 66.9407 158.218 68.358L134.82 80.3293C132.642 81.4436 132.642 84.5564 134.82 85.6707L158.218 97.642C160.989 99.0593 160.035 103.237 156.924 103.312L130.649 103.945C128.203 104.004 126.853 106.809 128.331 108.758L144.219 129.696C146.099 132.175 143.428 135.525 140.593 134.243L116.644 123.413C114.415 122.405 111.981 124.346 112.468 126.743L117.697 152.501C118.316 155.551 114.456 157.41 112.458 155.024L95.5799 134.876C94.0088 133.001 90.9741 133.694 90.3723 136.065L83.9078 161.541C83.1425 164.557 78.8575 164.557 78.0922 161.541L71.6277 136.065C71.0259 133.694 67.9912 133.001 66.4201 134.876L49.5424 155.024C47.5441 157.41 43.6835 155.551 44.3026 152.501L49.5318 126.743C50.0186 124.346 47.5849 122.405 45.3556 123.413L21.4075 134.243C18.5722 135.525 15.9005 132.175 17.7815 129.696L33.6686 108.758C35.1475 106.809 33.7969 104.004 31.351 103.945L5.07562 103.312C1.96476 103.237 1.01128 99.0593 3.78152 97.642L27.1799 85.6707C29.358 84.5564 29.358 81.4436 27.1799 80.3293L3.78151 68.358C1.01127 66.9407 1.96477 62.7631 5.07563 62.6881L31.351 62.0546C33.7969 61.9956 35.1475 59.1911 33.6686 57.2421L17.7815 36.3042C15.9005 33.8252 18.5722 30.4751 21.4075 31.7573L45.3556 42.5869C47.5849 43.595 50.0186 41.6543 49.5318 39.2566L44.3026 13.499C43.6835 10.4495 47.5442 8.5903 49.5424 10.9757L66.4201 31.1236C67.9912 32.9991 71.0259 32.3064 71.6277 29.935L78.0922 4.4594Z" stroke="#FFF5BE" stroke-width="2.5"/>
</g>
</svg>
